<svg xmlns="http://www.w3.org/2000/svg" viewBox="0 0 200 200">
  <!-- Spaceship -->
  <path d="M100,160 L85,130 L115,130 Z" fill="#4169E1"/>
  <rect x="90" y="130" width="20" height="30" fill="#4169E1"/>
  <circle cx="100" cy="140" r="5" fill="#FF4500"/>
  
  <!-- Stars -->
  <circle cx="30" cy="30" r="2" fill="white"/>
  <circle cx="50" cy="50" r="1" fill="white"/>
  <circle cx="70" cy="20" r="1.5" fill="white"/>
  <circle cx="100" cy="40" r="2" fill="white"/>
  <circle cx="130" cy="60" r="1" fill="white"/>
  <circle cx="150" cy="30" r="1.5" fill="white"/>
  <circle cx="170" cy="50" r="2" fill="white"/>
  <circle cx="40" cy="80" r="1" fill="white"/>
  <circle cx="60" cy="100" r="1.5" fill="white"/>
  <circle cx="140" cy="90" r="1" fill="white"/>
  <circle cx="160" cy="110" r="1.5" fill="white"/>
  
  <!-- Enemies -->
  <path d="M40,60 L50,70 L60,60 L50,50 Z" fill="#FF0000"/>
  <path d="M140,40 L150,50 L160,40 L150,30 Z" fill="#FF0000"/>
  <path d="M90,80 L100,90 L110,80 L100,70 Z" fill="#FF0000"/>
</svg>
